<?xml version="1.0" standalone="no"?>
<!DOCTYPE svg PUBLIC "-//W3C//DTD SVG 20010904//EN"
 "http://www.w3.org/TR/2001/REC-SVG-20010904/DTD/svg10.dtd">
<svg version="1.0" xmlns="http://www.w3.org/2000/svg"
 width="225.000000pt" height="225.000000pt" viewBox="0 0 225.000000 225.000000"
 preserveAspectRatio="xMidYMid meet">

<g transform="translate(0.000000,225.000000) scale(0.100000,-0.100000)"
fill="#000000" stroke="none">
<path d="M490 1863 c-106 -18 -207 -72 -284 -152 -207 -218 -168 -570 82 -738
34 -23 87 -50 117 -59 30 -10 55 -21 55 -26 0 -31 -100 -195 -179 -293 -48
-60 -56 -76 -56 -112 0 -30 7 -48 24 -67 39 -42 76 -42 179 -3 256 96 456 288
551 529 63 161 92 411 62 538 -60 250 -310 423 -551 383z"/>
<path d="M1610 1864 c-314 -61 -492 -373 -380 -667 51 -133 158 -235 297 -282
l63 -21 -41 -80 c-23 -45 -71 -121 -108 -169 -36 -49 -72 -96 -80 -106 -18
-24 -17 -84 2 -113 9 -12 30 -29 47 -36 28 -12 40 -11 104 10 247 79 455 258
560 481 71 150 116 377 102 519 -19 206 -148 377 -334 441 -56 20 -184 32
-232 23z"/>
</g>
</svg>
